PathFileType	4	(X/Y/Z)	./resultDataOpenSim/trcMotMarkerGrf/sub09/qtm-15-07.trc
DataRate	CameraRate	NumFrames	NumMarkers	Units	OrigDataRate	OrigDataStartFrame	OrigNumFrames
250.000000	250.000000	5	24	m	250.000000	59	469
Frame#	Time	L.Toe.Tip			R.Toe.Tip			L.Ankle.Lat			R.Ankle.Lat			L.Ankle.Med			R.Ankle.Med			L.Heel			R.Heel			L.Knee.Lat			R.Knee.Lat			L.Knee.Med			R.Knee.Med			L.Thigh.Upper			R.Thigh.Upper			L.ASIS			R.ASIS			V.Sacral			L.Acromium			R.Acromium			C7			L.Elbow			R.Elbow			L.Wrist.Lat			R.Wrist.Lat
		X1	Y1	Z1	X2	Y2	Z2	X3	Y3	Z3	X4	Y4	Z4	X5	Y5	Z5	X6	Y6	Z6	X7	Y7	Z7	X8	Y8	Z8	X9	Y9	Z9	X10	Y10	Z10	X11	Y11	Z11	X12	Y12	Z12	X13	Y13	Z13	X14	Y14	Z14	X15	Y15	Z15	X16	Y16	Z16	X17	Y17	Z17	X18	Y18	Z18	X19	Y19	Z19	X20	Y20	Z20	X21	Y21	Z21	X22	Y22	Z22	X23	Y23	Z23	X24	Y24	Z24

59	0.232	-1.3481027	0.09167242	-0.059526341	-0.63286874	0.039380152	0.081863042	-1.3602569	0.24794904	-0.10322468	-0.7796892	0.053547146	0.11299876	-1.3365855	0.23333582	-0.009434032	-0.77237161	0.091147634	0.021316139	-1.4199643	0.29683966	-0.055389272	-0.84866839	0.031177076	0.064726321	-0.98364959	0.41750482	-0.12160663	-0.73094499	0.50502049	0.17184906	-0.97623545	0.40458841	0.0045808203	-0.75115632	0.49253986	0.046166832	-0.96088183	0.82478161	-0.13102994	-0.92609137	0.8588814	0.24071024	-0.86972641	0.912466	-0.08100204	-0.86004112	0.94340662	0.15849851	-1.0326894	0.9830571	0.043958307	-0.85582591	1.3788815	-0.1207419	-0.88794409	1.3816275	0.20844376	-0.94062584	1.4353354	0.040091671	-0.97677347	1.02066	-0.19603454	-1.0438843	1.0508509	0.27363432	-0.74272094	0.88110112	-0.17773711	-0.94160613	0.79982464	0.29831075
60	0.236	-1.3332078	0.093107511	-0.061351916	-0.63283993	0.039337071	0.081710506	-1.3463102	0.24950658	-0.10307449	-0.77974978	0.05357571	0.11296153	-1.322711	0.23420325	-0.0092451575	-0.77215058	0.091115498	0.021181221	-1.4065332	0.29775525	-0.054981994	-0.84873983	0.03118219	0.064651775	-0.97015028	0.41837662	-0.12097785	-0.72764137	0.50461181	0.171727	-0.96172315	0.40511314	0.0052122078	-0.74814913	0.49242828	0.046021032	-0.95417523	0.82573735	-0.13087663	-0.92002457	0.86045772	0.24082718	-0.86373488	0.91374311	-0.080816718	-0.85375735	0.94470706	0.15852865	-1.0266573	0.98455898	0.043882027	-0.84997892	1.3800642	-0.12078151	-0.88130053	1.3828621	0.20852052	-0.9345117	1.4367184	0.040217906	-0.97105304	1.0219498	-0.19520707	-1.0364295	1.0515067	0.27449089	-0.73923014	0.87916833	-0.17795862	-0.93131701	0.80110575	0.29764348
61	0.24	-1.3179694	0.094290615	-0.063030243	-0.63288327	0.039301284	0.081599652	-1.3321802	0.2507075	-0.10289798	-0.77983119	0.053604815	0.11292926	-1.3090528	0.23475081	-0.0088681475	-0.77196338	0.091085596	0.021072667	-1.3928351	0.29826128	-0.054837671	-0.84883129	0.031182871	0.064560244	-0.95672665	0.41945027	-0.12038615	-0.72453812	0.50423172	0.17167378	-0.94778409	0.40580646	0.0058921166	-0.7453021	0.49227767	0.046024404	-0.94752842	0.82683475	-0.13078925	-0.91428342	0.86209063	0.24093733	-0.85779537	0.91511855	-0.080609883	-0.84754169	0.94611929	0.15856029	-1.0206955	0.98616843	0.043601137	-0.84418714	1.3813635	-0.12082161	-0.87471116	1.3841857	0.20859703	-0.92834037	1.4381381	0.040501099	-0.96557385	1.0233512	-0.19447046	-1.0290493	1.0522558	0.27519658	-0.73582494	0.87731572	-0.17818139	-0.9210795	0.8025215	0.29694193
62	0.244	-1.3024087	0.095240746	-0.064539581	-0.63296966	0.039278321	0.081526177	-1.3179021	0.25157192	-0.10271541	-0.77992137	0.053641566	0.11289328	-1.2956603	0.23506499	-0.0083728144	-0.77182651	0.091061145	0.020997327	-1.3790407	0.29842204	-0.054716797	-0.84893567	0.03118534	0.064463283	-0.94333484	0.42064247	-0.11989312	-0.72161433	0.50394039	0.17170123	-0.93408369	0.40668542	0.0066603719	-0.74268478	0.49209507	0.046250954	-0.94096248	0.82807394	-0.13073602	-0.90866815	0.86376188	0.24107294	-0.85184916	0.91661107	-0.080372467	-0.84135911	0.94761913	0.15861955	-1.0147725	0.98783018	0.043335423	-0.83845219	1.3827784	-0.12085159	-0.86817414	1.3856018	0.20867706	-0.92217888	1.4396004	0.040799161	-0.96009945	1.024867	-0.19363922	-1.0216929	1.0531098	0.27590833	-0.73254981	0.87555133	-0.17840744	-0.91090575	0.80407655	0.29621346
63	0.248	-1.2865874	0.095960573	-0.065823483	-0.63307318	0.039272819	0.081491872	-1.3034992	0.25212632	-0.10253525	-0.78002169	0.053680813	0.11285931	-1.282375	0.23521647	-0.0078431122	-0.77174761	0.091044139	0.020955264	-1.3652541	0.29829025	-0.054491228	-0.849044	0.031192921	0.064375171	-0.92999272	0.42191115	-0.11943855	-0.71890162	0.50372334	0.17182287	-0.92034126	0.40774093	0.0075074474	-0.74030456	0.49190054	0.046671141	-0.93448182	0.82946741	-0.13063376	-0.90310179	0.86546678	0.2412365	-0.84583263	0.91823645	-0.080102676	-0.83512143	0.94918173	0.15872282	-1.0088417	0.98949465	0.043279888	-0.83276205	1.3843051	-0.12086075	-0.86168922	1.3871128	0.20876648	-0.91603753	1.4411148	0.041095108	-0.95454772	1.0265206	-0.19256681	-1.0143508	1.054066	0.27666684	-0.72944012	0.87388484	-0.17864066	-0.90077616	0.80577693	0.29547221
